<?xml version="1.0" standalone="no"?>
<!DOCTYPE svg PUBLIC "-//W3C//DTD SVG 20010904//EN"
 "http://www.w3.org/TR/2001/REC-SVG-20010904/DTD/svg10.dtd">
<svg version="1.0" xmlns="http://www.w3.org/2000/svg"
 width="150.000000pt" height="150.000000pt" viewBox="0 0 150.000000 150.000000"
 preserveAspectRatio="xMidYMid meet">

<g transform="translate(0.000000,150.000000) scale(0.100000,-0.100000)"
fill="#000000" stroke="none">
<path d="M990 1258 c21 -23 24 -40 11 -73 -8 -19 -8 -19 -20 4 -12 21 -14 22
-28 8 -9 -9 -13 -23 -10 -31 8 -21 47 -20 63 2 26 34 11 112 -22 112 -11 0
-10 -5 6 -22z m-28 -90 c-7 -7 -12 -8 -12 -2 0 14 12 26 19 19 2 -3 -1 -11 -7
-17z"/>
<path d="M421 1224 c-34 -24 -56 -81 -39 -102 18 -24 31 -32 49 -32 27 0 29
25 2 37 -21 10 -23 10 -12 -3 6 -8 9 -18 5 -22 -4 -4 -16 4 -27 16 -17 22 -17
26 -4 52 21 41 53 60 102 60 37 0 49 -6 88 -43 25 -24 45 -52 45 -63 0 -11
-14 -31 -31 -43 -27 -20 -35 -22 -56 -12 -24 11 -24 13 -8 25 14 10 15 16 6
34 -15 28 -19 28 -31 -3 -5 -13 -27 -35 -48 -49 -80 -50 -104 -116 -62 -169
29 -37 26 -83 -9 -117 -32 -33 -30 -40 11 -40 23 0 28 -4 28 -23 0 -36 38 -52
85 -37 39 13 56 7 37 -12 -18 -18 -15 -28 9 -28 16 0 19 -4 14 -17 -8 -22 -25
-128 -25 -164 0 -15 16 -50 35 -78 31 -44 35 -58 35 -112 0 -54 3 -64 29 -90
47 -47 111 -36 111 18 0 26 12 30 29 9 7 -8 26 -18 44 -22 26 -5 35 -2 54 20
18 21 21 31 13 46 -16 30 -12 62 11 87 12 12 22 35 23 50 1 21 7 28 31 35 58
15 72 67 31 115 -25 30 -66 106 -66 122 0 5 9 13 21 16 12 4 18 12 15 21 -3 9
6 15 29 20 35 6 44 21 25 40 -6 6 -5 24 4 49 7 22 16 82 20 133 l7 93 -57 54
c-45 44 -61 54 -80 49 -30 -8 -42 17 -27 57 6 16 7 29 3 29 -5 0 -12 -9 -15
-20 -6 -19 -12 -20 -88 -14 -45 3 -101 1 -124 -4 -40 -9 -46 -8 -79 19 -30 24
-47 29 -88 29 -31 0 -61 -6 -75 -16z m433 -60 c32 -12 14 -19 -52 -20 -37 -1
-86 -8 -109 -16 -24 -9 -44 -12 -44 -7 -5 27 -2 34 21 40 32 9 163 11 184 3z
m126 -71 c37 -35 51 -63 33 -63 -5 0 -27 23 -51 50 -51 59 -39 66 18 13z m-25
-33 c10 -11 16 -21 14 -23 -2 -1 -33 -13 -69 -26 -45 -16 -83 -23 -123 -22
-113 4 -249 -38 -208 -63 5 -3 13 -25 19 -49 11 -44 39 -67 80 -67 9 0 36 -10
59 -22 37 -20 46 -21 76 -10 18 7 43 12 55 12 12 0 37 14 55 30 19 17 42 30
51 30 10 0 26 5 37 10 15 9 19 7 19 -5 0 -28 -27 -70 -69 -108 -45 -41 -61
-46 -61 -19 0 9 -13 23 -29 30 -28 12 -32 11 -60 -14 -17 -15 -31 -36 -31 -46
0 -15 -8 -18 -47 -18 -52 0 -132 19 -179 41 -20 10 -29 22 -29 39 -1 36 -27
100 -41 100 -7 0 -26 13 -43 29 -26 24 -31 37 -31 74 0 38 5 49 31 71 32 28
62 32 103 16 16 -6 26 -17 26 -30 0 -25 1 -25 42 0 24 14 61 21 133 26 55 4
111 13 125 20 36 19 74 17 95 -6z m49 -103 c11 -44 -1 -62 -51 -76 -44 -13
-73 9 -73 54 0 30 4 35 43 48 58 21 71 18 81 -26z m-233 -9 c3 -32 -4 -64 -15
-76 -19 -19 -85 -32 -111 -22 -23 9 -53 75 -41 88 7 7 82 19 134 21 19 0 32
-4 33 -11z m88 -42 c6 -24 19 -47 28 -51 14 -6 9 -10 -22 -16 -22 -4 -53 -8
-69 -8 -27 -1 -28 0 -13 17 8 9 18 31 22 47 11 50 14 55 28 55 9 0 19 -18 26
-44z m-2 -238 c-3 -8 -6 -5 -6 6 -1 11 2 17 5 13 3 -3 4 -12 1 -19z m-47 -89
c0 -21 6 -28 30 -32 35 -7 63 1 54 15 -4 6 -1 8 7 6 8 -3 13 -14 11 -24 -1
-10 -3 -35 -5 -54 -3 -33 -5 -35 -44 -38 -33 -2 -44 1 -57 20 -9 12 -16 18
-16 14 0 -20 35 -46 62 -46 30 0 38 -14 13 -24 -8 -3 -38 -8 -66 -12 l-51 -7
7 44 c4 24 12 52 17 62 5 10 6 38 2 62 -3 25 -3 53 1 62 6 17 7 17 21 -1 8
-11 14 -32 14 -47z m50 26 c0 -9 -9 -15 -21 -15 -18 0 -19 2 -9 15 7 8 16 15
21 15 5 0 9 -7 9 -15z m128 -67 c20 -20 14 -65 -10 -82 -32 -23 -48 -20 -48
10 0 25 28 84 40 84 3 0 11 -5 18 -12z m-350 -130 c-3 -7 -13 -13 -23 -13 -10
0 -20 6 -22 13 -3 7 5 12 22 12 17 0 25 -5 23 -12z"/>
<path d="M946 931 c-7 -11 18 -33 27 -24 4 3 7 12 7 20 0 15 -26 18 -34 4z"/>
<path d="M716 902 c-2 -4 -1 -14 4 -22 7 -11 12 -12 21 -3 6 6 8 16 5 22 -8
13 -23 14 -30 3z"/>
</g>
</svg>
